External Loads File
version=1
nRows=77
nColumns=13
Range=5.000000e-03-10 seconds
endheader
time 	forceRightX 	forceRightY 	forceRightZ 	pointRightX 	pointRightY 	pointRightZ 	forceLeftX 	forceLeftY 	forceLeftZ 	pointLeftX 	pointLeftY 	pointLeftZ 		
5.005000 -144.398568 -36.890969 -0.000000 0.314933 0.516240 -0.116407 190.777176 427.680974 -0.000000 0.252056 0.156275 -0.359665
5.010000 -146.642499 -13.826544 -0.000000 0.323378 0.513561 -0.116325 188.427489 373.375233 -0.000000 0.238396 0.158936 -0.354004
5.015000 -149.137111 10.288962 -0.000000 0.331500 0.510253 -0.116203 176.521433 324.102084 -0.000000 0.231748 0.163101 -0.355537
5.020000 -153.249642 38.713863 -0.000000 0.339109 0.506229 -0.115904 163.805875 277.259603 -0.000000 0.224412 0.166689 -0.357164
5.025000 -159.390098 72.271831 -0.000000 0.346442 0.501283 -0.115542 151.484484 233.434370 -0.000000 0.216168 0.171141 -0.357321
5.030000 -168.190788 110.507558 -0.000000 0.353206 0.495445 -0.115274 138.925152 194.110107 -0.000000 0.208398 0.176143 -0.357329
5.035000 -179.756825 153.677410 -0.000000 0.359942 0.488648 -0.114480 127.141223 159.472141 -0.000000 0.200754 0.181057 -0.357310
5.040000 -193.845741 201.472721 -0.000000 0.366340 0.481179 -0.113950 116.590901 129.682210 -0.000000 0.193366 0.187167 -0.357386
5.045000 -209.704266 253.259922 -0.000000 0.372519 0.473057 -0.113534 107.613811 104.621261 -0.000000 0.186176 0.194292 -0.357486
5.050000 -227.173946 307.305722 -0.000000 0.378473 0.464632 -0.113323 100.084318 84.287695 -0.000000 0.179308 0.201273 -0.357587
5.055000 -245.086363 362.396708 -0.000000 0.384036 0.455659 -0.113102 94.189776 68.051304 -0.000000 0.172822 0.208950 -0.357651
5.060000 -262.626319 416.967943 -0.000000 0.389317 0.446336 -0.113057 89.791201 55.372154 -0.000000 0.166712 0.217179 -0.357556
5.065000 -279.443240 469.476246 -0.000000 0.394321 0.436650 -0.112974 86.620043 45.778039 -0.000000 0.161110 0.225651 -0.357445
5.070000 -294.347381 519.386192 -0.000000 0.399162 0.426456 -0.112863 84.451446 38.657169 -0.000000 0.155848 0.234490 -0.357749
5.075000 -307.535775 565.866988 -0.000000 0.403543 0.415975 -0.112654 82.912947 33.684755 -0.000000 0.151225 0.243743 -0.357626
5.080000 -318.419698 608.983871 -0.000000 0.407600 0.405299 -0.112369 81.722511 30.423959 -0.000000 0.146986 0.253279 -0.357560
5.085000 -327.146114 648.676776 -0.000000 0.411209 0.394522 -0.112034 80.588231 28.576878 -0.000000 0.143517 0.263127 -0.357410
5.090000 -332.495303 685.749268 -0.000000 0.414587 0.383435 -0.111912 79.343149 27.675455 -0.000000 0.140558 0.273204 -0.357482
5.095000 -334.131164 720.663047 -0.000000 0.417335 0.372032 -0.111740 77.845693 27.367751 -0.000000 0.138152 0.283604 -0.357387
5.100000 -332.808210 753.503472 -0.000000 0.419525 0.360588 -0.111186 76.000915 27.434368 -0.000000 0.136303 0.294089 -0.357198
5.105000 -327.442095 785.274851 -0.000000 0.421138 0.348968 -0.110871 73.898927 27.492187 -0.000000 0.135053 0.304895 -0.357134
5.110000 -319.261503 815.982297 -0.000000 0.422129 0.337436 -0.110160 71.647305 27.384988 -0.000000 0.134452 0.315788 -0.356976
5.115000 -308.561095 846.002516 -0.000000 0.422637 0.326163 -0.109689 69.421061 26.798748 -0.000000 0.134458 0.326829 -0.356708
5.120000 -292.985373 876.397937 -0.000000 0.422619 0.314372 -0.109563 67.437459 25.148143 -0.000000 0.134829 0.338057 -0.356764
5.125000 -275.088921 906.099837 -0.000000 0.422027 0.303184 -0.109256 65.676641 22.242831 -0.000000 0.135816 0.349674 -0.356434
5.130000 -255.681187 934.466500 -0.000000 0.421080 0.292091 -0.108059 64.093710 17.828190 -0.000000 0.137222 0.360955 -0.356221
5.135000 -233.103612 961.307466 -0.000000 0.418759 0.281326 -0.108143 62.610867 11.666052 -0.000000 0.139163 0.372320 -0.356121
5.140000 -208.766531 985.471564 -0.000000 0.416163 0.270684 -0.107876 61.032408 3.954033 -0.000000 0.141589 0.383389 -0.355988
5.145000 -182.961985 1006.164155 -0.000000 0.413085 0.260329 -0.107853 59.181824 -4.990303 -0.000000 0.144392 0.394293 -0.356038
5.150000 -155.654847 1022.681024 -0.000000 0.409619 0.250178 -0.107903 56.897192 -14.752698 -0.000000 0.147876 0.404948 -0.355903
5.155000 -127.767838 1034.198473 -0.000000 0.405719 0.240347 -0.108109 54.049055 -24.839509 -0.000000 0.151851 0.415324 -0.355754
5.160000 -99.913127 1040.039083 -0.000000 0.401157 0.231077 -0.107959 50.541433 -34.776983 -0.000000 0.156343 0.425330 -0.355548
5.165000 -70.226378 1039.795226 -0.000000 0.396054 0.222103 -0.107799 46.214454 -44.186654 -0.000000 0.161894 0.435050 -0.358021
5.170000 -42.007921 1032.710826 -0.000000 0.390457 0.213628 -0.107626 41.148169 -52.422492 -0.000000 0.167441 0.444392 -0.356874
5.175000 -15.871243 1018.556359 -0.000000 0.384373 0.205840 -0.107375 35.419960 -58.991079 -0.000000 0.173102 0.453115 -0.356074
5.180000 11.397579 997.327293 -0.000000 0.377832 0.198488 -0.107124 28.879714 -63.585685 -0.000000 0.179744 0.461547 -0.356762
5.185000 35.860955 969.193267 -0.000000 0.370838 0.191615 -0.106928 21.772806 -65.781760 -0.000000 0.185967 0.469655 -0.356371
5.190000 60.401331 934.549983 -0.000000 0.363467 0.185351 -0.106795 13.921921 -65.511646 -0.000000 0.193455 0.477053 -0.356196
5.195000 82.163114 894.218151 -0.000000 0.355801 0.179584 -0.106935 5.555780 -62.732900 -0.000000 0.201017 0.483853 -0.356054
5.200000 101.425138 849.116924 -0.000000 0.347772 0.174515 -0.106799 -3.293832 -57.633511 -0.000000 0.209069 0.489420 -0.355833
5.205000 117.771596 800.366852 -0.000000 0.339501 0.170084 -0.106632 -12.545284 -50.540282 -0.000000 0.216930 0.494836 -0.355575
5.210000 133.070545 748.829749 -0.000000 0.330864 0.166216 -0.106373 -22.253021 -41.888491 -0.000000 0.225467 0.499618 -0.355655
5.215000 146.281891 695.779441 -0.000000 0.321953 0.163006 -0.106093 -32.260863 -32.278447 -0.000000 0.234269 0.503724 -0.355557
5.220000 157.593852 642.264930 -0.000000 0.312787 0.160574 -0.105914 -42.450542 -22.359308 -0.000000 0.243368 0.507061 -0.355385
5.225000 166.961299 589.244006 -0.000000 0.303420 0.158657 -0.105833 -52.652229 -12.736413 -0.000000 0.252601 0.509567 -0.355345
5.230000 174.683813 537.428537 -0.000000 0.293625 0.157472 -0.105532 -62.697497 -3.833000 -0.000000 0.261808 0.511264 -0.355676
5.235000 180.114785 487.722505 -0.000000 0.284096 0.156953 -0.105614 -72.427337 4.036356 -0.000000 0.271066 0.512187 -0.355912
5.240000 184.123448 440.428515 -0.000000 0.274294 0.157139 -0.105560 -81.731015 11.001012 -0.000000 0.280215 0.512401 -0.356139
5.245000 186.539071 396.066419 -0.000000 0.264516 0.158044 -0.105405 -90.562614 17.345946 -0.000000 0.289224 0.511983 -0.356517
5.250000 187.842667 354.732240 -0.000000 0.254766 0.159504 -0.105348 -98.932118 23.741229 -0.000000 0.298327 0.510815 -0.356281
5.255000 187.737618 316.749957 -0.000000 0.245209 0.161665 -0.105244 -106.957343 30.854259 -0.000000 0.307099 0.508688 -0.356340
5.260000 186.559322 282.004090 -0.000000 0.235742 0.164439 -0.105134 -114.810479 39.591353 -0.000000 0.315552 0.505975 -0.357080
5.265000 184.553900 250.302338 -0.000000 0.226423 0.167923 -0.105065 -122.744775 50.867354 -0.000000 0.323713 0.502512 -0.357212
5.270000 182.152992 221.201523 -0.000000 0.217313 0.171880 -0.105012 -130.995697 65.686080 -0.000000 0.331885 0.497831 -0.357226
5.275000 179.403955 194.430978 -0.000000 0.208528 0.176684 -0.104969 -139.834994 84.814231 -0.000000 0.340209 0.492797 -0.356826
5.280000 175.848049 170.194255 -0.000000 0.200062 0.182016 -0.105029 -149.809561 108.420131 -0.000000 0.347347 0.486924 -0.357068
5.285000 171.984093 147.807723 -0.000000 0.191930 0.187762 -0.105134 -161.027117 137.120678 -0.000000 0.354249 0.480827 -0.357585
5.290000 168.083828 126.666779 -0.000000 0.184082 0.194174 -0.105239 -173.243506 171.338681 -0.000000 0.360766 0.473446 -0.358035
5.295000 163.939687 106.750702 -0.000000 0.176659 0.201021 -0.105363 -186.306367 210.720136 -0.000000 0.367064 0.465508 -0.358511
5.300000 159.618722 87.739647 -0.000000 0.169642 0.208436 -0.105528 -199.355597 254.937462 -0.000000 0.373176 0.456656 -0.358940
5.305000 154.833539 69.936116 -0.000000 0.163087 0.216508 -0.105679 -212.067030 302.648933 -0.000000 0.378965 0.447994 -0.359244
5.310000 149.594301 53.151631 -0.000000 0.157017 0.224906 -0.105799 -223.146632 352.895708 -0.000000 0.384489 0.438671 -0.359440
5.315000 143.784308 37.321852 -0.000000 0.151431 0.233736 -0.105883 -231.104974 404.577526 -0.000000 0.389941 0.428584 -0.359558
5.320000 137.100503 23.231869 -0.000000 0.146371 0.242933 -0.106050 -236.804680 455.375485 -0.000000 0.394696 0.418787 -0.359671
5.325000 129.587658 10.813053 -0.000000 0.141837 0.252509 -0.106178 -239.071577 504.566757 -0.000000 0.399181 0.408723 -0.359759
5.330000 121.268578 0.609329 -0.000000 0.137959 0.262282 -0.106311 -239.073384 550.631554 -0.000000 0.403355 0.398865 -0.359725
5.335000 112.297370 -7.492366 -0.000000 0.134577 0.272244 -0.106497 -235.816340 593.446424 -0.000000 0.407064 0.388357 -0.359892
5.340000 102.866354 -13.272371 -0.000000 0.131755 0.282345 -0.106745 -230.138719 632.375746 -0.000000 0.410417 0.377487 -0.360041
5.345000 93.258665 -16.664333 -0.000000 0.128944 0.292816 -0.107360 -223.291298 667.026494 -0.000000 0.413388 0.366967 -0.359898
5.350000 83.830508 -17.670143 -0.000000 0.127316 0.303357 -0.107690 -217.712951 697.016078 -0.000000 0.415984 0.356910 -0.359706
5.355000 74.807201 -17.030661 -0.000000 0.126458 0.314005 -0.107722 -210.827406 723.810618 -0.000000 0.418008 0.346101 -0.359624
5.360000 66.453544 -15.169726 -0.000000 0.126092 0.324883 -0.107934 -202.207645 748.156985 -0.000000 0.419573 0.334524 -0.359668
5.365000 59.092561 -12.041346 -0.000000 0.126226 0.335364 -0.107899 -198.382472 769.004704 -0.000000 0.420606 0.324098 -0.359703
5.370000 52.634479 -8.895322 -0.000000 0.126955 0.346593 -0.108342 -191.539556 789.073073 -0.000000 0.421061 0.313016 -0.359546
5.375000 47.049114 -5.931030 -0.000000 0.128327 0.357485 -0.108657 -186.481729 807.558335 -0.000000 0.421026 0.302286 -0.360064
5.380000 42.075057 -3.780514 -0.000000 0.130281 0.368345 -0.108999 -181.253790 825.124052 -0.000000 0.420707 0.291700 -0.360439
5.385000 37.407062 -2.915723 -0.000000 0.132983 0.379443 -0.109433 -173.384506 842.196608 -0.000000 0.419412 0.281147 -0.360316
